<svg id="presentation" xmlns="http://www.w3.org/2000/svg" viewBox="0 0 1920 1080">
  <defs>
    <style>
      .cls-1 {
        opacity: 0.5;
      }

      .cls-2 {
        fill: #69a086;
      }

      .cls-3 {
        fill: #fff;
      }

      .cls-10, .cls-11, .cls-12, .cls-13, .cls-14, .cls-15, .cls-16, .cls-17, .cls-18, .cls-19, .cls-20, .cls-21, .cls-22, .cls-23, .cls-24, .cls-25, .cls-26, .cls-27, .cls-28, .cls-29, .cls-30, .cls-31, .cls-32, .cls-33, .cls-34, .cls-35, .cls-36, .cls-37, .cls-38, .cls-39, .cls-4, .cls-40, .cls-41, .cls-42, .cls-43, .cls-44, .cls-45, .cls-46, .cls-47, .cls-48, .cls-49, .cls-5, .cls-50, .cls-51, .cls-52, .cls-53, .cls-54, .cls-55, .cls-56, .cls-57, .cls-58, .cls-59, .cls-6, .cls-60, .cls-61, .cls-62, .cls-63, .cls-64, .cls-65, .cls-66, .cls-67, .cls-7, .cls-8, .cls-9 {
        fill: none;
        stroke-miterlimit: 10;
      }

      .cls-10, .cls-11, .cls-12, .cls-13, .cls-14, .cls-15, .cls-16, .cls-17, .cls-18, .cls-19, .cls-20, .cls-21, .cls-22, .cls-23, .cls-24, .cls-25, .cls-26, .cls-27, .cls-28, .cls-29, .cls-30, .cls-31, .cls-32, .cls-33, .cls-34, .cls-35, .cls-36, .cls-37, .cls-38, .cls-39, .cls-4, .cls-40, .cls-41, .cls-42, .cls-43, .cls-44, .cls-45, .cls-46, .cls-47, .cls-48, .cls-49, .cls-5, .cls-50, .cls-51, .cls-52, .cls-53, .cls-54, .cls-55, .cls-56, .cls-57, .cls-58, .cls-59, .cls-6, .cls-60, .cls-61, .cls-62, .cls-63, .cls-7, .cls-8, .cls-9 {
        stroke: #11683f;
      }

      .cls-4 {
        stroke-width: 0.89px;
      }

      .cls-5 {
        stroke-width: 0.81px;
      }

      .cls-17, .cls-29, .cls-41, .cls-5, .cls-53 {
        opacity: 0.91;
      }

      .cls-6 {
        stroke-width: 0.74px;
      }

      .cls-18, .cls-30, .cls-42, .cls-54, .cls-6 {
        opacity: 0.82;
      }

      .cls-7 {
        stroke-width: 0.67px;
      }

      .cls-19, .cls-31, .cls-43, .cls-55, .cls-7 {
        opacity: 0.73;
      }

      .cls-8 {
        stroke-width: 0.6px;
      }

      .cls-20, .cls-32, .cls-44, .cls-56, .cls-8 {
        opacity: 0.64;
      }

      .cls-9 {
        stroke-width: 0.52px;
      }

      .cls-21, .cls-33, .cls-45, .cls-57, .cls-9 {
        opacity: 0.55;
      }

      .cls-10 {
        stroke-width: 0.45px;
      }

      .cls-10, .cls-22, .cls-34, .cls-46, .cls-58 {
        opacity: 0.45;
      }

      .cls-11 {
        stroke-width: 0.38px;
      }

      .cls-11, .cls-23, .cls-35, .cls-47, .cls-59 {
        opacity: 0.36;
      }

      .cls-12 {
        stroke-width: 0.31px;
      }

      .cls-12, .cls-24, .cls-36, .cls-48, .cls-60 {
        opacity: 0.27;
      }

      .cls-13 {
        stroke-width: 0.23px;
      }

      .cls-13, .cls-25, .cls-37, .cls-49, .cls-61 {
        opacity: 0.18;
      }

      .cls-14 {
        stroke-width: 0.16px;
      }

      .cls-14, .cls-26, .cls-38, .cls-50, .cls-62 {
        opacity: 0.09;
      }

      .cls-15 {
        stroke-width: 0.09px;
      }

      .cls-15, .cls-27, .cls-39, .cls-51, .cls-63 {
        opacity: 0;
      }

      .cls-16 {
        stroke-width: 0.59px;
      }

      .cls-17 {
        stroke-width: 0.54px;
      }

      .cls-18 {
        stroke-width: 0.49px;
      }

      .cls-19 {
        stroke-width: 0.44px;
      }

      .cls-20 {
        stroke-width: 0.39px;
      }

      .cls-21 {
        stroke-width: 0.35px;
      }

      .cls-22 {
        stroke-width: 0.3px;
      }

      .cls-23 {
        stroke-width: 0.25px;
      }

      .cls-24 {
        stroke-width: 0.2px;
      }

      .cls-25 {
        stroke-width: 0.15px;
      }

      .cls-26 {
        stroke-width: 0.11px;
      }

      .cls-27 {
        stroke-width: 0.06px;
      }

      .cls-28 {
        stroke-width: 0.79px;
      }

      .cls-29 {
        stroke-width: 0.73px;
      }

      .cls-30 {
        stroke-width: 0.66px;
      }

      .cls-31 {
        stroke-width: 0.6px;
      }

      .cls-32 {
        stroke-width: 0.53px;
      }

      .cls-33 {
        stroke-width: 0.47px;
      }

      .cls-34 {
        stroke-width: 0.4px;
      }

      .cls-35 {
        stroke-width: 0.34px;
      }

      .cls-36 {
        stroke-width: 0.27px;
      }

      .cls-37 {
        stroke-width: 0.21px;
      }

      .cls-38 {
        stroke-width: 0.14px;
      }

      .cls-39 {
        stroke-width: 0.08px;
      }

      .cls-40 {
        stroke-width: 1.2px;
      }

      .cls-41 {
        stroke-width: 1.1px;
      }

      .cls-42 {
        stroke-width: 1px;
      }

      .cls-43 {
        stroke-width: 0.9px;
      }

      .cls-44 {
        stroke-width: 0.81px;
      }

      .cls-45 {
        stroke-width: 0.71px;
      }

      .cls-46 {
        stroke-width: 0.61px;
      }

      .cls-47 {
        stroke-width: 0.51px;
      }

      .cls-48 {
        stroke-width: 0.41px;
      }

      .cls-49 {
        stroke-width: 0.31px;
      }

      .cls-50 {
        stroke-width: 0.22px;
      }

      .cls-51 {
        stroke-width: 0.12px;
      }

      .cls-52 {
        stroke-width: 0.98px;
      }

      .cls-53 {
        stroke-width: 0.9px;
      }

      .cls-54 {
        stroke-width: 0.82px;
      }

      .cls-55 {
        stroke-width: 0.74px;
      }

      .cls-56 {
        stroke-width: 0.66px;
      }

      .cls-57 {
        stroke-width: 0.58px;
      }

      .cls-58 {
        stroke-width: 0.5px;
      }

      .cls-59 {
        stroke-width: 0.42px;
      }

      .cls-60 {
        stroke-width: 0.34px;
      }

      .cls-61 {
        stroke-width: 0.26px;
      }

      .cls-62 {
        stroke-width: 0.18px;
      }

      .cls-63 {
        stroke-width: 0.1px;
      }

      .cls-64, .cls-65, .cls-66, .cls-67 {
        stroke: #92baa7;
      }

      .cls-64 {
        stroke-width: 2.7px;
        stroke-dasharray: 10.3 10.3 10.3;
      }

      .cls-65, .cls-66 {
        stroke-width: 2.66px;
      }

      .cls-65 {
        stroke-dasharray: 11.09 11.09 11.09;
      }

      .cls-66 {
        stroke-dasharray: 10.14 10.14 10.14;
      }

      .cls-67 {
        stroke-width: 2.91px;
        stroke-dasharray: 12.12 12.12 12.12;
      }
    </style>
  </defs>
  <g id="graphic_element" data-name="graphic element" class="cls-1">
    <g>
      <path class="cls-2" d="M247.72,729c0,32.71-58.07,119-58.07,119s-58.07-86.3-58.07-119,26-59.22,58.07-59.22S247.72,696.31,247.72,729Z"/>
      <path class="cls-3" d="M217,726.4c0,15.38-12.22,27.84-27.3,27.84s-27.3-12.46-27.3-27.84,12.22-27.84,27.3-27.84S217,711,217,726.4Z"/>
    </g>
    <path class="cls-2" d="M1030.52,575.05c0,32.71-58.07,119-58.07,119s-58.08-86.3-58.08-119,26-59.22,58.08-59.22S1030.52,542.34,1030.52,575.05Z"/>
    <path class="cls-3" d="M979.64,619.87v12.85H966.38V619.87Zm-.3-61.42-1.53,51.72H968l-1.53-51.72Z"/>
    <g>
      <path class="cls-2" d="M583,896.73c0,32.71-58.07,119-58.07,119s-58.07-86.3-58.07-119,26-59.23,58.07-59.23S583,864,583,896.73Z"/>
      <path class="cls-3" d="M552.21,894.12c0,15.38-12.23,27.84-27.3,27.84s-27.3-12.46-27.3-27.84,12.22-27.83,27.3-27.83S552.21,878.75,552.21,894.12Z"/>
    </g>
    <g>
      <path class="cls-2" d="M838.9,439.44c0,22.62-40.18,82.33-40.18,82.33s-40.17-59.71-40.17-82.33,18-41,40.17-41S838.9,416.81,838.9,439.44Z"/>
      <path class="cls-3" d="M817.61,437.63a18.89,18.89,0,1,1-18.89-19.26A19.08,19.08,0,0,1,817.61,437.63Z"/>
    </g>
    <g>
      <path class="cls-2" d="M435.27,525c0,24.56-43.6,89.36-43.6,89.36s-43.61-64.8-43.61-89.36,19.53-44.47,43.61-44.47S435.27,500.41,435.27,525Z"/>
      <path class="cls-3" d="M412.16,523a20.5,20.5,0,1,1-20.49-20.9A20.7,20.7,0,0,1,412.16,523Z"/>
    </g>
    <g>
      <path class="cls-2" d="M855.5,778.64c0,28.7-51,104.44-51,104.44s-51-75.74-51-104.44,22.81-52,51-52S855.5,749.93,855.5,778.64Z"/>
      <path class="cls-3" d="M828.49,776.35a24,24,0,1,1-24-24.44A24.2,24.2,0,0,1,828.49,776.35Z"/>
    </g>
    <g>
      <ellipse class="cls-4" cx="524.91" cy="1016.11" rx="22.32" ry="5.41"/>
      <ellipse class="cls-5" cx="524.91" cy="1017.16" rx="31.57" ry="8.5"/>
      <ellipse class="cls-6" cx="524.91" cy="1018.2" rx="40.82" ry="11.59"/>
      <ellipse class="cls-7" cx="524.91" cy="1019.25" rx="50.08" ry="14.68"/>
      <ellipse class="cls-8" cx="524.91" cy="1020.29" rx="59.33" ry="17.77"/>
      <ellipse class="cls-9" cx="524.91" cy="1021.34" rx="68.58" ry="20.86"/>
      <ellipse class="cls-10" cx="524.91" cy="1022.38" rx="77.83" ry="23.95"/>
      <ellipse class="cls-11" cx="524.91" cy="1023.43" rx="87.08" ry="27.04"/>
      <ellipse class="cls-12" cx="524.91" cy="1024.47" rx="96.33" ry="30.13"/>
      <ellipse class="cls-13" cx="524.91" cy="1025.52" rx="105.58" ry="33.22"/>
      <ellipse class="cls-14" cx="524.91" cy="1026.56" rx="114.83" ry="36.31"/>
      <ellipse class="cls-15" cx="524.91" cy="1027.61" rx="124.09" ry="39.41"/>
    </g>
    <g>
      <path class="cls-16" d="M406.41,614.88c0,2-6.6,3.57-14.74,3.57s-14.74-1.6-14.74-3.57,6.6-3.57,14.74-3.57S406.41,612.91,406.41,614.88Z"/>
      <path class="cls-17" d="M370.82,615.57c0-3.1,9.34-5.61,20.85-5.61s20.84,2.51,20.84,5.61-9.33,5.61-20.84,5.61S370.82,618.67,370.82,615.57Z"/>
      <ellipse class="cls-18" cx="391.67" cy="616.26" rx="26.95" ry="7.65"/>
      <ellipse class="cls-19" cx="391.67" cy="616.95" rx="33.06" ry="9.69"/>
      <ellipse class="cls-20" cx="391.67" cy="617.64" rx="39.17" ry="11.73"/>
      <ellipse class="cls-21" cx="391.67" cy="618.33" rx="45.28" ry="13.77"/>
      <ellipse class="cls-22" cx="391.67" cy="619.02" rx="51.39" ry="15.81"/>
      <ellipse class="cls-23" cx="391.67" cy="619.71" rx="57.49" ry="17.85"/>
      <ellipse class="cls-24" cx="391.67" cy="620.4" rx="63.6" ry="19.9"/>
      <ellipse class="cls-25" cx="391.67" cy="621.09" rx="69.71" ry="21.94"/>
      <ellipse class="cls-26" cx="391.67" cy="621.78" rx="75.82" ry="23.98"/>
      <ellipse class="cls-27" cx="391.67" cy="622.47" rx="81.93" ry="26.02"/>
    </g>
    <g>
      <path class="cls-16" d="M813.46,522.48c0,2-6.6,3.57-14.74,3.57S784,524.45,784,522.48s6.59-3.57,14.73-3.57S813.46,520.51,813.46,522.48Z"/>
      <path class="cls-17" d="M777.88,523.17c0-3.1,9.33-5.61,20.84-5.61s20.85,2.51,20.85,5.61-9.33,5.61-20.85,5.61S777.88,526.27,777.88,523.17Z"/>
      <ellipse class="cls-18" cx="798.72" cy="523.86" rx="26.95" ry="7.65"/>
      <ellipse class="cls-19" cx="798.72" cy="524.55" rx="33.06" ry="9.69"/>
      <ellipse class="cls-20" cx="798.72" cy="525.24" rx="39.17" ry="11.73"/>
      <ellipse class="cls-21" cx="798.72" cy="525.93" rx="45.28" ry="13.77"/>
      <ellipse class="cls-22" cx="798.72" cy="526.62" rx="51.39" ry="15.81"/>
      <ellipse class="cls-23" cx="798.72" cy="527.31" rx="57.49" ry="17.85"/>
      <ellipse class="cls-24" cx="798.72" cy="528" rx="63.6" ry="19.9"/>
      <ellipse class="cls-25" cx="798.72" cy="528.69" rx="69.71" ry="21.94"/>
      <ellipse class="cls-26" cx="798.72" cy="529.38" rx="75.82" ry="23.98"/>
      <ellipse class="cls-27" cx="798.72" cy="530.07" rx="81.93" ry="26.02"/>
    </g>
    <g>
      <path class="cls-28" d="M823.93,883.07c0,2.67-8.95,4.84-20,4.84s-20-2.17-20-4.84,8.95-4.84,20-4.84S823.93,880.4,823.93,883.07Z"/>
      <ellipse class="cls-29" cx="803.95" cy="884.01" rx="28.27" ry="7.61"/>
      <ellipse class="cls-30" cx="803.95" cy="884.94" rx="36.55" ry="10.37"/>
      <ellipse class="cls-31" cx="803.95" cy="885.88" rx="44.83" ry="13.14"/>
      <ellipse class="cls-32" cx="803.95" cy="886.81" rx="53.12" ry="15.91"/>
      <ellipse class="cls-33" cx="803.95" cy="887.75" rx="61.4" ry="18.68"/>
      <ellipse class="cls-34" cx="803.95" cy="888.68" rx="69.68" ry="21.44"/>
      <ellipse class="cls-35" cx="803.95" cy="889.62" rx="77.96" ry="24.21"/>
      <ellipse class="cls-36" cx="803.95" cy="890.56" rx="86.25" ry="26.98"/>
      <ellipse class="cls-37" cx="803.95" cy="891.49" rx="94.53" ry="29.75"/>
      <ellipse class="cls-38" cx="803.95" cy="892.43" rx="102.81" ry="32.51"/>
      <ellipse class="cls-39" cx="803.95" cy="893.36" rx="111.1" ry="35.28"/>
    </g>
    <g>
      <ellipse class="cls-40" cx="189.65" cy="848.65" rx="30.16" ry="7.3"/>
      <ellipse class="cls-41" cx="189.65" cy="850.06" rx="42.67" ry="11.48"/>
      <ellipse class="cls-42" cx="189.65" cy="851.48" rx="55.17" ry="15.66"/>
      <ellipse class="cls-43" cx="189.65" cy="852.89" rx="67.67" ry="19.83"/>
      <ellipse class="cls-44" cx="189.65" cy="854.3" rx="80.17" ry="24.01"/>
      <ellipse class="cls-45" cx="189.65" cy="855.71" rx="92.67" ry="28.19"/>
      <ellipse class="cls-46" cx="189.65" cy="857.13" rx="105.17" ry="32.37"/>
      <ellipse class="cls-47" cx="189.65" cy="858.54" rx="117.67" ry="36.54"/>
      <ellipse class="cls-48" cx="189.65" cy="859.95" rx="130.18" ry="40.72"/>
      <ellipse class="cls-49" cx="189.65" cy="861.36" rx="142.68" ry="44.9"/>
      <ellipse class="cls-50" cx="189.65" cy="862.78" rx="155.18" ry="49.07"/>
      <ellipse class="cls-51" cx="189.65" cy="864.19" rx="167.68" ry="53.25"/>
    </g>
    <g>
      <ellipse class="cls-52" cx="972.45" cy="694.59" rx="24.61" ry="5.96"/>
      <ellipse class="cls-53" cx="972.45" cy="695.75" rx="34.81" ry="9.37"/>
      <ellipse class="cls-54" cx="972.45" cy="696.9" rx="45.01" ry="12.77"/>
      <ellipse class="cls-55" cx="972.45" cy="698.05" rx="55.2" ry="16.18"/>
      <ellipse class="cls-56" cx="972.45" cy="699.2" rx="65.4" ry="19.59"/>
      <ellipse class="cls-57" cx="972.45" cy="700.36" rx="75.6" ry="23"/>
      <ellipse class="cls-58" cx="972.45" cy="701.51" rx="85.8" ry="26.4"/>
      <ellipse class="cls-59" cx="972.45" cy="702.66" rx="96" ry="29.81"/>
      <ellipse class="cls-60" cx="972.45" cy="703.81" rx="106.2" ry="33.22"/>
      <ellipse class="cls-61" cx="972.45" cy="704.96" rx="116.4" ry="36.63"/>
      <ellipse class="cls-62" cx="972.45" cy="706.12" rx="126.6" ry="40.03"/>
      <ellipse class="cls-63" cx="972.45" cy="707.27" rx="136.79" ry="43.44"/>
    </g>
    <path class="cls-64" d="M189.14,659c9.11-69.24,32.55-141.66,75.58-190.38C286,444.49,316.07,424.41,344.89,434c15.48,5.14,37.32,22.24,44.9,34.92"/>
    <path class="cls-65" d="M520.35,785.73c-5.51-96.53-16.18-214.19-43.24-282-13.41-33.59-36-55.82-57.57-26.58"/>
    <path class="cls-65" d="M801.88,714.93c-26.27-94.21-73.4-185.87-147-252.07-46-41.42-110.9-75.91-173.08-59.57-28.28,7.43-61.48,32.87-81,69.53"/>
    <path class="cls-66" d="M204.07,662.75a54.91,54.91,0,0,1,12.28-12.16c36.78-28,87.83-31.41,131.27-16.45s80,46.28,109.41,82.17c26.27,32,48.05,69,56.61,109.84"/>
    <path class="cls-67" d="M536.51,824.35c12.6-155,52.61-316.21,129.93-418.12,27.16-35.81,63.27-64.23,93.4-45.83,9.49,5.79,20.74,18.35,29.69,32"/>
    <path class="cls-65" d="M560,824.35C582.8,771.1,616.35,722.8,662,690.49c23.84-16.87,54.47-29,77.7-16.35,12.47,6.77,28,32.55,31.9,44.4"/>
    <path class="cls-65" d="M561.37,781.1c33-124.2,106.59-244.14,229.1-302,30.79-14.52,67.42-24.38,103.3-18.75,31.65,5,59.18,23.47,78.68,47.31"/>
  </g>
</svg>
