<svg id="Pin" xmlns="http://www.w3.org/2000/svg" viewBox="0 0 242 227">
  <defs>
    <style>
      .cls-1 {
        fill: #267650;
      }

      .cls-2 {
        fill: #34b574;
      }

      .cls-3 {
        fill: #8ab5a1;
      }

      .cls-4, .cls-5 {
        fill: #07a556;
      }

      .cls-4 {
        opacity: 0.2;
      }

      .cls-5 {
        opacity: 0.1;
      }

      .cls-6 {
        fill: #fff;
        opacity: 0.4;
      }

      .cls-7 {
        fill: #11683f;
      }
    </style>
  </defs>
  <g id="Pin-2" data-name="Pin">
    <path class="cls-1" d="M168.52,28.93h0l-.63-.38L148,17.14a27.43,27.43,0,0,0-15.51-4.54c-6.94,0-13.95,2.52-22.2,7.08-28.83,16-53.47,62-53.47,92.29v8.37c0,36.66,48.22,81.4,48.22,81.4l20,11.55a.1.1,0,0,0,.09,0c-.67-.78,21.24-32.75,41.9-95.1C189.91,49.2,169,29.32,168.52,28.93Zm-33.74,109.6c-16.32,9.43-30,4.49-33.88-10.72C93.41,126.75,88,121,86.33,111.57,84.23,81,100.45,56.71,123.68,46.84c9.93-3.62,18.25-1,22.7,6.44,13.65-2.34,23.41,7,23.41,24.62C169.79,100.21,154.12,127.37,134.78,138.53Z"/>
    <path class="cls-2" d="M169.79,77.9c0,22.31-15.67,49.47-35,60.63-16.32,9.43-30,4.49-33.88-10.72,4.9.7,10.71-.61,16.93-4.21,17.72-10.21,32.06-35.08,32.06-55.51,0-6.06-1.27-11.06-3.51-14.81C160,50.94,169.79,60.29,169.79,77.9Z"/>
    <g>
      <g>
        <polygon class="cls-3" points="107.5 125.67 118.61 132.09 118.61 110.57 107.5 104.15 107.5 125.67"/>
        <polygon class="cls-4" points="107.5 125.67 118.61 132.09 118.61 110.57 107.5 104.15 107.5 125.67"/>
      </g>
      <polygon class="cls-3" points="160.51 86.38 134.76 74.31 109.02 116.11 118.61 110.57 118.61 132.09 130.78 125.06 130.78 110.99 138.74 106.39 138.74 120.46 150.93 113.42 150.93 91.91 160.51 86.38"/>
      <g>
        <polygon class="cls-3" points="123.65 67.89 134.76 74.31 109.02 116.11 97.9 109.69 123.65 67.89"/>
        <polygon class="cls-5" points="123.65 67.89 134.76 74.31 109.02 116.11 97.9 109.69 123.65 67.89"/>
      </g>
      <g>
        <polygon class="cls-3" points="123.65 67.89 134.76 74.31 160.51 86.38 149.4 79.96 123.65 67.89"/>
        <polygon class="cls-6" points="123.65 67.89 134.76 74.31 160.51 86.38 149.4 79.96 123.65 67.89"/>
      </g>
      <g>
        <polygon class="cls-3" points="130.78 125.06 138.74 120.46 138.74 106.39 130.78 110.99 130.78 125.06"/>
        <polygon class="cls-4" points="130.78 125.06 138.74 120.46 138.74 106.39 130.78 110.99 130.78 125.06"/>
      </g>
    </g>
    <path class="cls-7" d="M168.52,28.93h0l-.63-.38c-9.64-5.41-22.52-4.68-36.67,3.47C109.88,44.35,91.42,70.24,82.68,97.42c-3.47,10.76-4.94,16.47-4.94,26.88v8.36c0,28.26,31.51,66.25,46.23,79.82a6.77,6.77,0,0,0,1.08.81.1.1,0,0,0,.09,0,7.22,7.22,0,0,0,10.3-3c12.7-26,49.72-104.35,49.72-134.71V67.27C185.16,48.43,178.78,35.09,168.52,28.93ZM100.9,127.81c-.21-.78-.39-1.59-.53-2.43a38.31,38.31,0,0,1-.6-7.06c0-22.31,15.66-49.47,35-60.62a41.39,41.39,0,0,1,6.38-3,30.85,30.85,0,0,1,5.22-1.41c13.65-2.34,23.41,7,23.41,24.62,0,22.31-15.67,49.47-35,60.63C118.46,148,104.77,143,100.9,127.81Z"/>
  </g>
</svg>
